<svg width="388" height="324" viewBox="0 0 388 324" fill="none" xmlns="http://www.w3.org/2000/svg">
<path d="M194 317.056C278.45 317.056 346.911 284.581 346.911 244.522C346.911 204.462 278.45 171.987 194 171.987C109.55 171.987 41.0892 204.462 41.0892 244.522C41.0892 284.581 109.55 317.056 194 317.056Z" fill="#F5F5F5"/>
<path d="M257.636 290.257L143.487 235.223C139.087 233.102 139.089 227.798 143.492 225.68L154.751 219.752C158.706 217.849 163.576 217.851 167.529 219.757L281.678 274.79C286.078 276.911 286.075 282.215 281.673 284.334L270.413 290.261C266.459 292.165 261.589 292.163 257.636 290.257Z" fill="#E0E0E0"/>
<path d="M84.0796 240.085C97.7614 240.085 108.853 234.768 108.853 228.209C108.853 221.65 97.7614 216.332 84.0796 216.332C70.3978 216.332 59.3066 221.65 59.3066 228.209C59.3066 234.768 70.3978 240.085 84.0796 240.085Z" fill="#E6E6E6"/>
<path d="M298.105 242.807L308.975 248.025C308.975 248.025 303.425 233.463 306.381 218.782C307.497 213.241 309.894 210.482 310.737 209.001C311.58 207.52 318.066 198.345 312.29 194.149C306.512 189.954 293.057 198.395 293.786 220.986C294.16 232.578 298.105 242.807 298.105 242.807Z" fill="#BA68C8"/>
<path opacity="0.5" d="M298.105 242.807L308.975 248.025C308.975 248.025 303.425 233.463 306.381 218.782C307.497 213.241 309.894 210.482 310.737 209.001C311.58 207.52 318.066 198.345 312.29 194.149C306.512 189.954 293.057 198.395 293.786 220.986C294.16 232.578 298.105 242.807 298.105 242.807Z" fill="black"/>
<path d="M303.158 245.556C303.001 245.556 302.853 245.476 302.794 245.345C302.752 245.251 298.608 235.776 298.74 220.545C298.872 205.241 308.451 197.05 308.548 196.97C308.699 196.843 308.944 196.844 309.095 196.969C309.248 197.096 309.248 197.301 309.097 197.428C309.002 197.507 299.645 205.526 299.516 220.55C299.385 235.652 303.48 245.026 303.521 245.12C303.596 245.288 303.494 245.474 303.293 245.536C303.249 245.55 303.203 245.556 303.158 245.556Z" fill="white"/>
<path d="M302.638 245.035L317.493 252.135C320.71 253.673 324.918 253.009 326.975 250.433C327.825 249.367 328.348 247.964 328.145 246.124C327.433 239.684 324.08 238.198 328.188 235.325C332.297 232.452 333.365 232.254 333.127 229.48C332.89 226.706 330.636 225.517 329.568 224.428C328.5 223.338 325.534 221.059 327.551 217.691C329.568 214.323 332.318 211.061 328.144 209.567C325.652 208.675 321.5 209.865 318.771 212.341C316.043 214.818 313.789 216.601 311.178 217.195C308.569 217.79 303.111 217.889 303.348 221.654C303.586 225.418 304.775 226.707 303.705 228.39C301.689 231.561 292.909 233.344 302.638 245.035Z" fill="#BA68C8"/>
<path d="M309.981 248.869C309.783 248.869 309.614 248.743 309.595 248.575C309.57 248.352 307.311 226.114 325.621 211.316C325.775 211.192 326.021 211.195 326.17 211.324C326.319 211.452 326.314 211.658 326.161 211.782C308.114 226.366 310.343 248.295 310.368 248.515C310.388 248.693 310.231 248.851 310.018 248.868C310.005 248.868 309.993 248.869 309.981 248.869Z" fill="white"/>
<path d="M312.921 229.728C312.723 229.728 312.553 229.6 312.536 229.432C311.928 223.53 306.973 220.562 306.923 220.533C306.747 220.429 306.705 220.228 306.828 220.082C306.951 219.934 307.195 219.899 307.368 220.002C307.584 220.129 312.669 223.176 313.308 229.376C313.326 229.554 313.168 229.711 312.955 229.726C312.944 229.727 312.933 229.728 312.921 229.728Z" fill="white"/>
<path d="M311.654 233.546C311.563 233.546 311.472 233.519 311.398 233.465C311.237 233.347 311.221 233.142 311.362 233.008C311.552 232.827 316.132 228.601 326.888 229.725C327.101 229.747 327.252 229.909 327.225 230.087C327.199 230.264 326.997 230.386 326.791 230.368C316.47 229.286 311.99 233.394 311.945 233.436C311.869 233.509 311.762 233.546 311.654 233.546Z" fill="white"/>
<path d="M254.158 283.681L153.768 235.282C146.685 231.867 140.943 222.705 140.943 214.819V35.3103C140.943 27.4241 146.686 23.7992 153.768 27.2142L254.158 75.6133C261.241 79.0283 266.983 88.1897 266.983 96.0758V275.584C266.984 283.471 261.241 287.096 254.158 283.681Z" fill="#455A64"/>
<path d="M265.718 69.9867L165.329 21.5875C162.3 20.1276 159.519 19.9578 157.325 20.8546L157.323 20.8559C157.054 20.9661 156.793 21.0931 156.542 21.235L145.295 26.6951C147.556 25.5669 150.521 25.6479 153.77 27.2148L254.159 75.6139C261.243 79.0289 266.984 88.1903 266.984 96.0764V275.585C266.984 279.754 265.379 282.731 262.819 284.108L273.918 278.709L273.916 278.707C276.743 277.451 278.544 274.373 278.544 269.958V90.4492C278.544 82.563 272.801 73.4016 265.718 69.9867Z" fill="#37474F"/>
<path d="M266.984 96.0766V275.585C266.984 279.754 265.378 282.731 262.818 284.108L273.917 278.709L273.916 278.708C276.743 277.451 278.543 274.373 278.543 269.958V90.4493C278.543 90.4448 278.543 90.4396 278.543 90.4351L266.982 96.0403C266.983 96.0526 266.984 96.0642 266.984 96.0766Z" fill="#263238"/>
<path d="M278.544 104.385L266.984 109.958V114.31L278.544 108.737V104.385Z" fill="#37474F"/>
<path d="M273.479 133.346C272.444 133.844 271.606 133.316 271.606 132.164V122.803C271.606 121.651 272.444 120.314 273.479 119.815C274.513 119.317 275.351 119.846 275.351 120.997V130.359C275.35 131.51 274.512 132.848 273.479 133.346Z" fill="#37474F"/>
<path d="M271.606 132.164V122.802C271.606 121.651 272.444 120.313 273.479 119.815C273.93 119.598 274.337 119.586 274.66 119.725L274.662 119.714L273.264 119.108L273.261 119.118C272.934 118.963 272.513 118.969 272.048 119.194C271.014 119.693 270.175 121.03 270.175 122.181V131.543C270.175 132.164 270.424 132.596 270.812 132.791L270.809 132.8L272.277 133.439L272.28 133.428C271.872 133.244 271.606 132.806 271.606 132.164Z" fill="#455A64"/>
<path d="M273.479 156.009C272.444 156.508 271.606 155.979 271.606 154.828V145.466C271.606 144.314 272.444 142.977 273.479 142.479C274.513 141.98 275.351 142.509 275.351 143.661V153.022C275.35 154.174 274.512 155.511 273.479 156.009Z" fill="#37474F"/>
<path d="M271.606 154.827V145.466C271.606 144.314 272.444 142.977 273.479 142.478C273.93 142.261 274.337 142.249 274.66 142.388L274.662 142.377L273.264 141.772L273.261 141.781C272.934 141.626 272.513 141.633 272.048 141.857C271.014 142.356 270.175 143.693 270.175 144.844V154.206C270.175 154.827 270.424 155.259 270.812 155.454L270.809 155.464L272.277 156.103L272.28 156.092C271.872 155.908 271.606 155.469 271.606 154.827Z" fill="#455A64"/>
<path d="M250.668 80.6618L152.006 33.0863C150.192 32.2115 147.924 33.3046 147.924 35.0536V214.819C147.924 220.822 153.018 228.189 159.243 231.19L255.507 277.601C257.506 278.564 260.003 277.36 260.003 275.434V94.1629C260.003 89.2128 255.802 83.1371 250.668 80.6618Z" fill="#BA68C8"/>
<path opacity="0.9" d="M250.668 80.6618L152.006 33.0863C150.192 32.2115 147.924 33.3046 147.924 35.0536V214.819C147.924 220.822 153.018 228.189 159.243 231.19L255.507 277.601C257.506 278.564 260.003 277.36 260.003 275.434V94.1629C260.003 89.2128 255.802 83.1371 250.668 80.6618Z" fill="white"/>
<path d="M181.507 45.5066L183.035 50.8824L215.737 66.6269L221.383 64.1133L181.507 45.5066Z" fill="#455A64"/>
<path d="M191.117 50.7002C191.117 51.5919 190.368 51.9528 189.443 51.507C188.519 51.0612 187.77 49.9777 187.77 49.0861C187.77 48.1951 188.519 47.8335 189.443 48.2793C190.368 48.7251 191.117 49.8092 191.117 50.7002Z" fill="#263238"/>
<path d="M213.149 62.0713C212.976 62.0713 212.801 62.0357 212.64 61.9599L195.937 54.1664C195.432 53.9305 195.252 53.3978 195.533 52.9766C195.816 52.5548 196.454 52.4044 196.958 52.6397L213.661 60.4332C214.165 60.669 214.346 61.2017 214.064 61.6229C213.873 61.9093 213.516 62.0713 213.149 62.0713Z" fill="#263238"/>
<path d="M168.605 70.5012C167.589 70.0113 166.852 70.4371 166.852 71.5212C166.852 72.6169 167.589 73.7652 168.605 74.2551C169.209 74.5467 169.972 74.5525 170.528 74.2493L172.149 76.6974C171.205 77.2333 169.766 77.1808 168.46 76.551C165.861 75.2977 163.975 72.6046 163.975 70.1682C163.975 67.7667 165.91 66.9508 168.57 68.2332C169.863 68.8572 171.277 70.1221 172.149 71.4512L170.528 72.5236C170.02 71.6145 169.258 70.8162 168.605 70.5012Z" fill="#BA68C8"/>
<path d="M181.482 78.6214C181.482 81.0462 179.524 81.886 176.827 80.5861C174.131 79.2862 172.173 76.5698 172.173 74.1333C172.173 71.7085 174.131 70.916 176.827 72.2159C179.524 73.5152 181.482 76.2076 181.482 78.6214ZM175.05 75.5324C175.05 76.6515 175.896 77.8872 176.864 78.3538C177.831 78.8203 178.605 78.3654 178.605 77.2463C178.605 76.1266 177.831 74.9498 176.864 74.4833C175.884 74.0109 175.05 74.4126 175.05 75.5324Z" fill="#BA68C8"/>
<path d="M184.613 76.0507L187.962 81.8619V77.6648L190.5 78.8889V87.0609L188.156 85.9301L184.818 80.148V84.3218L182.268 83.0919V74.9199L184.613 76.0507Z" fill="#BA68C8"/>
<path d="M198.796 82.8877V85.0209L196.378 83.8551V89.8939L193.573 88.5415V82.5028L191.167 81.3428V79.209L198.796 82.8877Z" fill="#BA68C8"/>
<path d="M204.26 92.541L201.08 91.0079L200.646 91.952L197.769 90.5646L201.347 84.1177L204.225 85.505L207.669 95.3384L204.683 93.8986L204.26 92.541ZM203.571 90.2737L202.701 87.4639L201.807 89.4229L203.571 90.2737Z" fill="#BA68C8"/>
<path d="M212.12 91.4802C211.104 90.9903 210.367 91.4161 210.367 92.5002C210.367 93.5959 211.104 94.7442 212.12 95.2341C212.724 95.5257 213.487 95.5315 214.043 95.2283L215.664 97.6764C214.72 98.2123 213.281 98.1598 211.975 97.53C209.376 96.2767 207.49 93.5836 207.49 91.1472C207.49 88.7457 209.425 87.9298 212.085 89.2122C213.378 89.8363 214.792 91.1012 215.664 92.4302L214.043 93.5026C213.534 92.5935 212.773 91.7952 212.12 91.4802Z" fill="#BA68C8"/>
<path d="M223.315 94.7093V96.8425L220.898 95.6768V101.715L218.093 100.363V94.3244L215.687 93.1645V91.0312L223.315 94.7093Z" fill="#BA68C8"/>
<path d="M231.598 104.741C232.287 105.074 232.819 104.817 232.819 104.001V99.2912L235.624 100.644V105.353C235.624 107.522 234.04 108.169 231.586 106.986C229.119 105.796 227.487 103.599 227.487 101.431V96.7212L230.292 98.0736V102.783C230.293 103.587 230.897 104.403 231.598 104.741Z" fill="#BA68C8"/>
<path d="M240.146 104.771C239.832 104.62 239.626 104.613 239.626 104.858C239.626 105.884 244.015 107.359 244.015 110.319C244.015 112.138 242.358 112.144 240.447 111.223C238.973 110.512 237.329 109.241 236.203 107.871L237.244 106.344C238.114 107.463 239.613 108.757 240.471 109.171C240.883 109.369 241.149 109.369 241.149 109.077C241.149 108.016 236.761 106.6 236.761 103.733C236.761 102.101 238.187 101.763 240.387 102.823C241.729 103.47 243.119 104.525 244.075 105.568L243.059 107.131C242.201 106.262 240.884 105.126 240.146 104.771Z" fill="#BA68C8"/>
<path d="M154.493 110.77C157.294 107.902 158.976 104.241 158.976 100.251C158.976 91.0538 150.047 83.5979 139.033 83.5979C128.018 83.5979 119.09 91.0538 119.09 100.251C119.09 109.449 128.018 116.905 139.033 116.905C142.774 116.905 146.273 116.043 149.265 114.546L158.977 118.068L154.493 110.77Z" fill="#BA68C8"/>
<path opacity="0.4" d="M154.493 110.77C157.294 107.902 158.976 104.241 158.976 100.251C158.976 91.0538 150.047 83.5979 139.033 83.5979C128.018 83.5979 119.09 91.0538 119.09 100.251C119.09 109.449 128.018 116.905 139.033 116.905C142.774 116.905 146.273 116.043 149.265 114.546L158.977 118.068L154.493 110.77Z" fill="black"/>
<path d="M131.65 99.3662C131.65 99.1089 131.432 98.9702 131.034 98.9702C130.354 98.9702 129.457 99.3454 128.585 99.9338L127.482 98.1453C128.764 97.4066 130.085 96.9673 131.496 96.9673C133.355 96.9673 134.766 97.7812 134.766 99.002C134.766 99.869 134.009 100.705 132.996 101.54L131.612 102.686H134.894V104.592H127.841L127.828 103.028L130.97 100.319C131.342 99.998 131.65 99.6234 131.65 99.3662Z" fill="white"/>
<path d="M140.635 97.075L138.493 101.369H139.366V99.9229H142.071V101.369H143.097V103.136H142.071V104.592H139.366V103.136H135.531V101.529L137.84 97.075H140.635Z" fill="white"/>
<path d="M151.429 100.855V104.592H148.544V101.551C148.544 101.059 148.211 100.748 147.711 100.748C147.147 100.748 146.788 101.124 146.788 101.691V104.593H143.902V96.6472H146.788V99.5703C147.262 98.9709 147.993 98.6281 148.917 98.6281C150.391 98.6275 151.429 99.5055 151.429 100.855Z" fill="white"/>
<path d="M245.555 161.07V241.581C245.555 245.58 240.369 248.083 236.222 246.08L184.29 221.04L175.091 216.61C173.148 215.674 171.43 214.495 169.98 213.134C166.61 209.99 164.668 205.877 164.668 201.529V121.01C164.668 117.011 169.846 114.515 174.001 116.511L235.124 145.987C241.58 149.095 245.555 154.848 245.555 161.07Z" fill="#BA68C8"/>
<path opacity="0.5" d="M245.555 161.07V241.581C245.555 245.58 240.369 248.083 236.222 246.08L184.29 221.04L175.091 216.61C173.148 215.674 171.43 214.495 169.98 213.134C166.61 209.99 164.668 205.877 164.668 201.529V121.01C164.668 117.011 169.846 114.515 174.001 116.511L235.124 145.987C241.58 149.095 245.555 154.848 245.555 161.07Z" fill="white"/>
<path d="M215.644 208.707C215.644 208.707 225.369 222.172 218.341 237.357L184.29 221.039L215.644 208.707Z" fill="#263238"/>
<path d="M231.144 148.205C231.88 143.215 227.632 138.671 221.656 138.057C215.679 137.442 210.238 140.99 209.502 145.98C208.766 150.971 213.015 155.514 218.991 156.129C224.967 156.743 230.408 153.196 231.144 148.205Z" fill="#263238"/>
<path d="M220.372 121.556C220.372 121.556 223.72 116.999 224.747 117.35C225.775 117.701 224.079 122.006 224.079 122.006C224.079 122.006 229.141 122.884 228.194 123.938C227.248 124.993 221.071 124.75 221.071 124.75L220.372 121.556Z" fill="#263238"/>
<path d="M222.728 133.246C220.374 147.853 205.653 147.853 205.653 147.853L174.755 136.504C174.755 136.504 172.424 134.8 171.714 130.882C171.467 129.54 171.408 127.93 171.706 126.046C171.706 126.033 171.714 126.015 171.714 126.002C172.7 119.862 178.2 113.254 190.185 111.226C192.576 110.814 195.229 110.59 198.158 110.59C199.496 110.59 200.781 110.639 202.014 110.752C211.361 111.513 217.855 115.144 220.964 120.785C221.643 122.02 222.159 123.35 222.503 124.772C223.139 127.331 223.22 130.17 222.728 133.246Z" fill="#263238"/>
<path d="M148.568 161.499C148.568 161.499 137.6 161.186 133.377 170.109C133.377 170.109 138.043 172.734 144.144 170.121C150.245 167.508 148.568 161.499 148.568 161.499Z" fill="#BA68C8"/>
<path opacity="0.5" d="M148.568 161.499C148.568 161.499 137.6 161.186 133.377 170.109C133.377 170.109 138.043 172.734 144.144 170.121C150.245 167.508 148.568 161.499 148.568 161.499Z" fill="black"/>
<path d="M148.252 165.795C148.252 165.795 145.158 154.536 143.517 154.397C141.791 154.251 141.559 157.833 141.692 159.847L137.785 152.878C137.269 151.959 135.934 151.604 134.869 152.093C130.983 153.875 124.182 159.292 138.535 172.688L148.252 165.795Z" fill="#945959"/>
<path d="M187.986 158.011L185.673 157.755C180.893 157.227 176.145 158.892 173.25 162.11L159.401 177.509L148.568 161.499C148.568 161.499 147.26 172.388 133.377 170.109L148.29 191.058C152.364 196.782 162.018 197.373 167.05 192.207L179.806 179.107L187.986 158.011Z" fill="#BA68C8"/>
<path d="M217.549 193.94C214.448 200.511 214.105 201.796 216.032 205.078C217.953 208.353 219.156 212.622 219.156 212.622C219.156 212.622 204.772 226.087 184.29 221.039L175.091 216.609C173.148 215.673 171.43 214.494 169.98 213.134L172.731 195.725C172.873 194.808 172.761 193.865 172.402 192.991L169.465 185.797C166.536 178.615 168.8 170.672 175.301 165.374L185.187 157.306L211.153 160.039L215.009 160.969C220.255 162.229 223.603 166.522 222.856 171.04C221.577 178.722 219.499 189.81 217.549 193.94Z" fill="#BA68C8"/>
<path opacity="0.5" d="M217.549 193.94C214.448 200.511 214.105 201.796 216.032 205.078C217.953 208.353 219.156 212.622 219.156 212.622C219.156 212.622 204.772 226.087 184.29 221.039L175.091 216.609C173.148 215.673 171.43 214.494 169.98 213.134L172.731 195.725C172.873 194.808 172.761 193.865 172.402 192.991L169.465 185.797C166.536 178.615 168.8 170.672 175.301 165.374L185.187 157.306L211.153 160.039L215.009 160.969C220.255 162.229 223.603 166.522 222.856 171.04C221.577 178.722 219.499 189.81 217.549 193.94Z" fill="black"/>
<path d="M201.895 174.333L196.695 170.634C195.572 169.835 194.027 169.591 192.632 169.991L186.346 171.796L185.5 168.857C184.946 166.925 182.573 165.771 180.287 166.321L177.562 166.976L182.177 159.602C183.68 157.2 185.997 155.222 188.839 153.914L190.645 153.082L205.583 153.724C205.583 153.724 211.153 155.65 211.153 160.042L201.895 174.333Z" fill="#BA68C8"/>
<path d="M205.65 159.223L190.669 168.971V137.94H205.65V159.223Z" fill="#945959"/>
<path d="M190.901 156.67L186.346 171.795L205.583 159.223L190.901 156.67Z" fill="#945959"/>
<path d="M190.669 154.42C196.432 152.563 202.454 148.834 205.65 142.523V137.94H190.669V154.42Z" fill="#703838"/>
<path d="M193.902 114.944C188.22 114.944 176.14 117.589 174.747 130.001C173.353 142.414 174.698 152.047 182.371 152.969C190.044 153.892 207.855 149.254 210.24 133.185C212.626 117.116 199.444 114.944 193.902 114.944Z" fill="#945959"/>
<path d="M184.956 135.255V142.576L179.823 141.259L184.956 135.255Z" fill="#703838"/>
<path d="M190.669 138.013C191.655 138.013 192.455 137.345 192.455 136.521C192.455 135.697 191.655 135.03 190.669 135.03C189.682 135.03 188.882 135.697 188.882 136.521C188.882 137.345 189.682 138.013 190.669 138.013Z" fill="#263238"/>
<path d="M180.707 135.481C180.707 136.305 179.908 136.972 178.921 136.972C177.934 136.972 177.134 136.305 177.134 135.481C177.134 134.658 177.934 133.99 178.921 133.99C179.907 133.99 180.707 134.658 180.707 135.481Z" fill="#263238"/>
<path d="M176.745 132.375L180.238 130.643C180.238 130.643 178.897 129.48 177.563 130.179C176.228 130.878 176.745 132.375 176.745 132.375Z" fill="#263238"/>
<path d="M182.542 145.543C182.542 145.543 185.378 145.759 187.353 144.467C187.353 144.467 187.681 146.582 185.559 146.987C183.436 147.392 182.542 145.543 182.542 145.543Z" fill="#703838"/>
<path d="M179.497 119.165C179.497 119.165 181.634 136.308 209.542 136.843C209.542 136.843 217.974 119.809 201.309 114.275C184.644 108.742 179.497 119.165 179.497 119.165Z" fill="#263238"/>
<path d="M217.758 134.277L217.759 134.276L217.744 134.269C217.74 134.267 217.736 134.265 217.732 134.263L214.301 132.609L214.299 132.611C213 131.97 211.198 132.053 209.204 133.014C205.245 134.923 202.035 139.565 202.035 143.382C202.035 145.293 202.84 146.635 204.141 147.26L207.51 148.876C207.575 148.909 207.64 148.94 207.706 148.97L207.821 149.025L207.826 149.017C209.103 149.533 210.8 149.411 212.67 148.509C216.629 146.601 219.838 141.959 219.838 138.141C219.837 136.242 219.042 134.906 217.758 134.277Z" fill="#BA68C8"/>
<path d="M217.733 144.044C220.532 139.995 220.532 135.619 217.733 134.269C214.934 132.92 210.396 135.108 207.596 139.157C204.797 143.206 204.796 147.582 207.596 148.932C210.395 150.281 214.933 148.093 217.733 144.044Z" fill="#BA68C8"/>
<path opacity="0.5" d="M217.733 144.044C220.532 139.995 220.532 135.619 217.733 134.269C214.934 132.92 210.396 135.108 207.596 139.157C204.797 143.206 204.796 147.582 207.596 148.932C210.395 150.281 214.933 148.093 217.733 144.044Z" fill="black"/>
<path d="M219.137 137.872L219.138 137.871L219.128 137.866C219.125 137.865 219.122 137.863 219.119 137.862L216.772 136.73L216.771 136.731C215.882 136.293 214.649 136.35 213.284 137.007C210.575 138.314 208.379 141.489 208.379 144.102C208.379 145.409 208.93 146.327 209.82 146.754L212.124 147.86C212.168 147.883 212.213 147.904 212.259 147.925L212.337 147.962L212.341 147.957C213.214 148.31 214.375 148.227 215.655 147.61C218.364 146.303 220.56 143.128 220.56 140.515C220.56 139.216 220.016 138.303 219.137 137.872Z" fill="#BA68C8"/>
<path d="M220.56 140.515C220.56 143.128 218.364 146.303 215.655 147.61C212.946 148.916 210.75 147.857 210.75 145.245C210.75 142.633 212.946 139.457 215.655 138.151C218.364 136.845 220.56 137.903 220.56 140.515Z" fill="#BA68C8"/>
<path opacity="0.3" d="M220.56 140.515C220.56 143.128 218.364 146.303 215.655 147.61C212.946 148.916 210.75 147.857 210.75 145.245C210.75 142.633 212.946 139.457 215.655 138.151C218.364 136.845 220.56 137.903 220.56 140.515Z" fill="black"/>
<path d="M207.104 111.595C204.888 110.149 202.152 109.386 199.34 109.351C199.116 109.349 198.891 109.347 198.665 109.347C195.55 109.347 192.729 109.587 190.186 110.024C190.697 110.007 191.207 110.009 191.718 110.024H190.186V111.226H191.626C194.712 111.317 197.781 112.026 200.542 113.353C206.468 116.211 210.152 121.54 210.152 127.256V132.353C210.152 133.203 211.022 133.876 212.052 133.787C212.113 133.782 212.168 133.767 212.227 133.756L213.758 133.358V133.356C213.655 133.382 213.549 133.402 213.438 133.412C214.392 133.331 215.08 132.6 215.08 131.799V127.069C215.08 118.513 210.65 113.911 207.104 111.595Z" fill="#BA68C8"/>
<path d="M197.339 152.613C196.71 152.613 196.077 152.502 195.481 152.271L190.628 150.397C190.339 150.285 190.212 149.998 190.347 149.757C190.482 149.514 190.825 149.411 191.113 149.521L195.966 151.394C197.233 151.884 198.734 151.648 199.703 150.807L204.332 146.787C204.554 146.596 204.919 146.589 205.15 146.774C205.379 146.959 205.387 147.264 205.166 147.456L200.537 151.476C199.682 152.219 198.519 152.613 197.339 152.613Z" fill="#BA68C8"/>
<path opacity="0.5" d="M197.339 152.613C196.71 152.613 196.077 152.502 195.481 152.271L190.628 150.397C190.339 150.285 190.212 149.998 190.347 149.757C190.482 149.514 190.825 149.411 191.113 149.521L195.966 151.394C197.233 151.884 198.734 151.648 199.703 150.807L204.332 146.787C204.554 146.596 204.919 146.589 205.15 146.774C205.379 146.959 205.387 147.264 205.166 147.456L200.537 151.476C199.682 152.219 198.519 152.613 197.339 152.613Z" fill="black"/>
<path d="M191.906 149.024C191.906 150.07 190.892 150.917 189.64 150.917C188.389 150.917 187.375 150.07 187.375 149.024C187.375 147.979 188.389 147.132 189.64 147.132C190.892 147.132 191.906 147.979 191.906 149.024Z" fill="#BA68C8"/>
<path opacity="0.5" d="M191.906 149.024C191.906 150.07 190.892 150.917 189.64 150.917C188.389 150.917 187.375 150.07 187.375 149.024C187.375 147.979 188.389 147.132 189.64 147.132C190.892 147.132 191.906 147.979 191.906 149.024Z" fill="black"/>
<path d="M215.08 127.07V131.8C215.08 132.601 214.392 133.331 213.438 133.414C212.342 133.508 211.417 132.792 211.417 131.889V127.071C211.417 120.993 207.499 115.327 201.198 112.287C197.806 110.655 193.975 109.899 190.185 110.025C192.728 109.587 195.549 109.348 198.664 109.348C198.89 109.348 199.116 109.349 199.34 109.352C202.151 109.386 204.888 110.15 207.103 111.596C210.65 113.911 215.08 118.513 215.08 127.07Z" fill="#BA68C8"/>
<path opacity="0.5" d="M215.08 127.07V131.8C215.08 132.601 214.392 133.331 213.438 133.414C212.342 133.508 211.417 132.792 211.417 131.889V127.071C211.417 120.993 207.499 115.327 201.198 112.287C197.806 110.655 193.975 109.899 190.185 110.025C192.728 109.587 195.549 109.348 198.664 109.348C198.89 109.348 199.116 109.349 199.34 109.352C202.151 109.386 204.888 110.15 207.103 111.596C210.65 113.911 215.08 118.513 215.08 127.07Z" fill="black"/>
<path d="M206.359 216.22C206.359 216.22 202.602 224.87 216.029 228.734C216.029 228.734 220.414 223.361 216.029 218.961C211.644 214.562 206.359 216.22 206.359 216.22Z" fill="#BA68C8"/>
<path opacity="0.7" d="M206.359 216.22C206.359 216.22 202.602 224.87 216.029 228.734C216.029 228.734 220.414 223.361 216.029 218.961C211.644 214.562 206.359 216.22 206.359 216.22Z" fill="black"/>
<path d="M211.048 216.612C211.048 216.612 197.937 220.628 198.004 222.178C198.07 223.728 203.58 222.674 203.58 222.674L201.566 223.773C199.451 224.928 197.813 226.598 196.874 228.557C196.445 229.45 196.893 230.471 197.912 230.921L202.894 233.125C204.08 233.649 205.55 233.252 206.143 232.247C206.695 231.312 207.685 230.619 208.87 230.29C211.577 229.535 216.607 227.37 218.653 221.451L211.048 216.612Z" fill="#945959"/>
<path d="M215.006 160.969C215.006 160.969 208.029 164.219 211.73 174.048C215.431 183.876 222.404 199.146 222.404 199.146L206.359 216.221C206.359 216.221 211.73 216.521 214.983 220.52C218.236 224.519 216.029 228.736 216.029 228.736L235.94 207.376C239.683 203.361 240.746 198.04 238.766 193.228L230.202 172.412C228.082 167.258 223.199 163.229 217.002 161.52L215.006 160.969Z" fill="#BA68C8"/>
<path d="M97.1179 102.864L66.2572 87.9848C65.326 87.5357 64.4716 87.4839 63.7965 87.7593L63.7957 87.7599C63.7127 87.7936 63.6328 87.8325 63.5552 87.8766L56.8435 91.1613C56.8567 91.1548 56.8715 91.1503 56.8847 91.1444C56.0419 91.5429 55.5065 92.4767 55.5065 93.8103V122.465C55.5065 124.889 57.2719 127.705 59.4494 128.755L90.3101 143.634C91.3639 144.142 92.3184 144.139 93.0253 143.73C93.0067 143.741 92.9904 143.755 92.9718 143.765L99.6376 140.498L99.6368 140.497C100.506 140.111 101.059 139.165 101.059 137.808V109.153C101.06 106.729 99.2954 103.913 97.1179 102.864Z" fill="#BA68C8"/>
<path d="M99.9565 105.579C99.2395 104.404 98.2338 103.401 97.1179 102.864L66.2572 87.9848C65.326 87.5357 64.4716 87.4839 63.7965 87.7593L63.7957 87.7599C63.7127 87.7936 63.6328 87.8325 63.5552 87.8766L56.8435 91.1613C57.5381 90.8146 58.4499 90.8392 59.4486 91.3213L90.3093 106.2C91.464 106.757 92.5 107.812 93.2209 109.041L99.9565 105.579Z" fill="#BA68C8"/>
<path d="M94.253 141.145C94.253 142.426 93.7594 143.341 92.9726 143.765L99.6384 140.498L99.6376 140.497C100.507 140.111 101.06 139.165 101.06 137.808V109.153C101.06 107.971 100.638 106.697 99.9558 105.579L93.2209 109.04C93.8595 110.128 94.2522 111.35 94.2522 112.489L94.253 141.145Z" fill="#BA68C8"/>
<path opacity="0.3" d="M99.9565 105.579C99.2395 104.404 98.2338 103.401 97.1179 102.864L66.2572 87.9848C65.326 87.5357 64.4716 87.4839 63.7965 87.7593L63.7957 87.7599C63.7127 87.7936 63.6328 87.8325 63.5552 87.8766L56.8435 91.1613C57.5381 90.8146 58.4499 90.8392 59.4486 91.3213L90.3093 106.2C91.464 106.757 92.5 107.812 93.2209 109.041L99.9565 105.579Z" fill="black"/>
<path opacity="0.6" d="M94.253 141.145C94.253 142.426 93.7594 143.341 92.9726 143.765L99.6384 140.498L99.6376 140.497C100.507 140.111 101.06 139.165 101.06 137.808V109.153C101.06 107.971 100.638 106.697 99.9558 105.579L93.2209 109.04C93.8595 110.128 94.2522 111.35 94.2522 112.489L94.253 141.145Z" fill="black"/>
<path d="M85.2079 120.704C85.2079 124.414 83.4456 125.678 80.8018 124.403C79.3406 123.699 78.3093 122.58 77.8576 121.181C77.1049 121.978 75.8804 122.03 74.1817 121.212C71.4098 119.875 69.2169 116.704 69.2169 113.575C69.2169 110.467 71.3881 109.399 74.1817 110.747C75.6002 111.43 76.7185 112.446 77.4913 113.71V112.487L80.4145 113.896V120.611C80.4145 121.606 80.8662 122.155 81.4466 122.434C82.4352 122.911 83.0366 122.103 83.0366 119.699C83.0366 115.492 79.8124 111.037 75.0415 108.736C70.2489 106.426 67.0456 108.032 67.0456 112.363C67.0456 116.777 70.1845 121.419 74.9554 123.719C76.3087 124.372 77.8351 124.839 79.1885 124.849L79.8768 127.087C78.5653 127.097 76.6525 126.527 74.9554 125.709C68.7435 122.714 64.6385 116.673 64.6385 111.203C64.6385 105.794 68.7862 103.753 75.0407 106.768C81.0811 109.68 85.2079 115.503 85.2079 120.704ZM77.5348 117.586C77.5348 115.783 76.3956 114.218 74.8483 113.472C73.2792 112.716 72.1835 113.244 72.1835 115.006C72.1835 116.788 73.2792 118.394 74.8483 119.15C76.3956 119.896 77.5348 119.41 77.5348 117.586Z" fill="#BA68C8"/>
<g opacity="0.9">
<path d="M85.2079 120.704C85.2079 124.414 83.4456 125.678 80.8018 124.403C79.3406 123.699 78.3093 122.58 77.8576 121.181C77.1049 121.978 75.8804 122.03 74.1817 121.212C71.4098 119.875 69.2169 116.704 69.2169 113.575C69.2169 110.467 71.3881 109.399 74.1817 110.747C75.6002 111.43 76.7185 112.446 77.4913 113.71V112.487L80.4145 113.896V120.611C80.4145 121.606 80.8662 122.155 81.4466 122.434C82.4352 122.911 83.0366 122.103 83.0366 119.699C83.0366 115.492 79.8124 111.037 75.0415 108.736C70.2489 106.426 67.0456 108.032 67.0456 112.363C67.0456 116.777 70.1845 121.419 74.9554 123.719C76.3087 124.372 77.8351 124.839 79.1885 124.849L79.8768 127.087C78.5653 127.097 76.6525 126.527 74.9554 125.709C68.7435 122.714 64.6385 116.673 64.6385 111.203C64.6385 105.794 68.7862 103.753 75.0407 106.768C81.0811 109.68 85.2079 115.503 85.2079 120.704ZM77.5348 117.586C77.5348 115.783 76.3956 114.218 74.8483 113.472C73.2792 112.716 72.1835 113.244 72.1835 115.006C72.1835 116.788 73.2792 118.394 74.8483 119.15C76.3956 119.896 77.5348 119.41 77.5348 117.586Z" fill="white"/>
</g>
<path d="M97.1179 153.91L66.2572 139.031C65.326 138.582 64.4716 138.53 63.7965 138.805L63.7957 138.806C63.7127 138.84 63.6328 138.879 63.5552 138.923L56.8435 142.207C56.8567 142.201 56.8715 142.196 56.8847 142.191C56.0419 142.589 55.5065 143.523 55.5065 144.856V173.511C55.5065 175.935 57.2719 178.751 59.4494 179.801L90.3101 194.68C91.3639 195.188 92.3184 195.185 93.0253 194.776C93.0067 194.787 92.9904 194.801 92.9718 194.811L99.6376 191.544L99.6368 191.544C100.506 191.157 101.059 190.211 101.059 188.854V160.199C101.06 157.776 99.2954 154.959 97.1179 153.91Z" fill="#BA68C8"/>
<path d="M99.9565 156.626C99.2395 155.451 98.2338 154.448 97.1179 153.91L66.2572 139.032C65.326 138.583 64.4716 138.531 63.7965 138.806L63.7957 138.807C63.7127 138.84 63.6328 138.879 63.5552 138.923L56.8435 142.208C57.5381 141.861 58.4499 141.886 59.4486 142.368L90.3093 157.247C91.464 157.804 92.5 158.859 93.2209 160.088L99.9565 156.626Z" fill="#BA68C8"/>
<path d="M94.253 192.192C94.253 193.473 93.7594 194.388 92.9726 194.811L99.6384 191.545L99.6376 191.544C100.507 191.158 101.06 190.212 101.06 188.854V160.2C101.06 159.018 100.638 157.744 99.9558 156.625L93.2209 160.086C93.8595 161.174 94.2522 162.397 94.2522 163.536L94.253 192.192Z" fill="#BA68C8"/>
<path opacity="0.3" d="M99.9565 156.626C99.2395 155.451 98.2338 154.448 97.1179 153.91L66.2572 139.032C65.326 138.583 64.4716 138.531 63.7965 138.806L63.7957 138.807C63.7127 138.84 63.6328 138.879 63.5552 138.923L56.8435 142.208C57.5381 141.861 58.4499 141.886 59.4486 142.368L90.3093 157.247C91.464 157.804 92.5 158.859 93.2209 160.088L99.9565 156.626Z" fill="black"/>
<path opacity="0.6" d="M94.253 192.192C94.253 193.473 93.7594 194.388 92.9726 194.811L99.6384 191.545L99.6376 191.544C100.507 191.158 101.06 190.212 101.06 188.854V160.2C101.06 159.018 100.638 157.744 99.9558 156.625L93.2209 160.086C93.8595 161.174 94.2522 162.397 94.2522 163.536L94.253 192.192Z" fill="black"/>
<path d="M71.4269 166.722L63.9866 156.626V170.309L71.4269 166.722Z" fill="#BA68C8"/>
<path d="M78.345 169.631L85.7721 180.373V166.714L78.345 169.631Z" fill="#BA68C8"/>
<path d="M65.1173 156.183L72.7593 166.553C72.7888 166.581 72.8237 166.603 72.8462 166.636C72.8633 166.66 72.8656 166.688 72.8781 166.714L75.1176 169.754L77.0405 168.998C77.0731 168.974 77.1003 168.945 77.1398 168.925C77.2198 168.887 77.3051 168.867 77.3913 168.86L85.1179 165.825L65.1173 156.183Z" fill="#BA68C8"/>
<path d="M77.2182 170.074L75.1439 170.889C75.0594 170.922 74.9686 170.938 74.8809 170.938C74.6714 170.938 74.4681 170.849 74.3517 170.692L72.0772 167.605L64.6074 171.207L84.6981 180.893L77.2182 170.074Z" fill="#BA68C8"/>
<g opacity="0.9">
<path d="M71.4269 166.722L63.9866 156.626V170.309L71.4269 166.722Z" fill="white"/>
<path d="M78.345 169.631L85.7721 180.373V166.714L78.345 169.631Z" fill="white"/>
<path d="M65.1173 156.183L72.7593 166.553C72.7888 166.581 72.8237 166.603 72.8462 166.636C72.8633 166.66 72.8656 166.688 72.8781 166.714L75.1176 169.754L77.0405 168.998C77.0731 168.974 77.1003 168.945 77.1398 168.925C77.2198 168.887 77.3051 168.867 77.3913 168.86L85.1179 165.825L65.1173 156.183Z" fill="white"/>
<path d="M77.2182 170.074L75.1439 170.889C75.0594 170.922 74.9686 170.938 74.8809 170.938C74.6714 170.938 74.4681 170.849 74.3517 170.692L72.0772 167.605L64.6074 171.207L84.6981 180.893L77.2182 170.074Z" fill="white"/>
</g>
<path d="M97.1179 51.8174L66.2572 36.9386C65.326 36.4896 64.4716 36.4377 63.7965 36.7131L63.7957 36.7138C63.7127 36.7475 63.6328 36.7864 63.5552 36.8304L56.8435 40.1151C56.8567 40.1086 56.8715 40.1041 56.8847 40.0983C56.0419 40.4968 55.5065 41.4306 55.5065 42.7642V71.4187C55.5065 73.8429 57.2719 76.6597 59.4494 77.7095L90.3101 92.5882C91.3639 93.0963 92.3184 93.0937 93.0253 92.6848C93.0067 92.6951 92.9904 92.7094 92.9718 92.7191L99.6376 89.4526L99.6368 89.4519C100.506 89.0657 101.059 88.1196 101.059 86.7621V58.1075C101.06 55.6833 99.2954 52.8671 97.1179 51.8174Z" fill="#BA68C8"/>
<path d="M99.9565 54.5331C99.2395 53.3577 98.2338 52.3552 97.1179 51.8167L66.2572 36.9386C65.326 36.4896 64.4716 36.4377 63.7965 36.7131L63.7957 36.7138C63.7127 36.7475 63.6328 36.7864 63.5552 36.8304L56.8435 40.1151C57.5381 39.7684 58.4499 39.7931 59.4486 40.2752L90.3093 55.1539C91.464 55.7105 92.5 56.7661 93.2209 57.9947L99.9565 54.5331Z" fill="#BA68C8"/>
<path d="M94.253 90.0986C94.253 91.3803 93.7594 92.2953 92.9726 92.7185L99.6384 89.4519L99.6376 89.4513C100.507 89.065 101.06 88.119 101.06 86.7614V58.1068C101.06 56.9249 100.638 55.6509 99.9558 54.5325L93.2209 57.9934C93.8595 59.0814 94.2522 60.3042 94.2522 61.4434L94.253 90.0986Z" fill="#BA68C8"/>
<path opacity="0.3" d="M99.9565 54.5331C99.2395 53.3577 98.2338 52.3552 97.1179 51.8167L66.2572 36.9386C65.326 36.4896 64.4716 36.4377 63.7965 36.7131L63.7957 36.7138C63.7127 36.7475 63.6328 36.7864 63.5552 36.8304L56.8435 40.1151C57.5381 39.7684 58.4499 39.7931 59.4486 40.2752L90.3093 55.1539C91.464 55.7105 92.5 56.7661 93.2209 57.9947L99.9565 54.5331Z" fill="black"/>
<path opacity="0.6" d="M94.253 90.0986C94.253 91.3803 93.7594 92.2953 92.9726 92.7185L99.6384 89.4519L99.6376 89.4513C100.507 89.065 101.06 88.119 101.06 86.7614V58.1068C101.06 56.9249 100.638 55.6509 99.9558 54.5325L93.2209 57.9934C93.8595 59.0814 94.2522 60.3042 94.2522 61.4434L94.253 90.0986Z" fill="black"/>
<path d="M84.1595 77.7375C82.973 76.1084 81.7764 74.4852 80.5884 72.8567C80.0429 72.1089 79.429 71.6754 78.7198 71.5484C78.144 71.4454 77.5674 71.3404 76.9808 71.1933C76.8256 71.1544 76.578 70.9873 76.4709 70.8317C74.4921 67.9695 72.9471 65.0296 71.8724 62.017C71.8227 61.877 71.8576 61.6898 71.9368 61.6237C72.3007 61.3185 72.6879 61.0392 73.0798 60.7683C73.5633 60.4346 73.6471 59.865 73.3778 59.0517C72.8043 57.3209 72.2503 55.5927 71.6815 53.8626C71.3097 52.7305 70.4701 51.9127 69.459 51.708C68.0513 51.4228 66.7826 51.4598 65.6558 51.8233C65.1809 51.9769 64.9365 52.3339 64.931 52.9463C65.1274 54.1334 65.2632 55.305 65.5293 56.5096C67.4484 65.2006 72.0648 73.206 79.3499 80.5142C79.9233 81.0896 80.4976 81.3617 81.078 81.3404C82.3577 81.2937 83.4541 80.9483 84.3559 80.2861C85.0473 79.78 84.9767 78.8592 84.1595 77.7375Z" fill="#BA68C8"/>
<path d="M84.0672 68.9272C83.9415 67.1951 83.3277 65.4112 82.2327 63.5858C81.4412 62.2651 80.4689 61.0761 79.3258 60.0172C79.0185 59.7321 78.7601 59.6401 78.6119 59.8585C78.4606 60.0814 78.6073 60.3756 78.906 60.6549C79.0077 60.7501 79.1085 60.846 79.2063 60.9458C81.4559 63.2248 82.7472 65.6717 83.0731 68.2864C83.098 68.4859 83.0553 68.6836 83.1414 68.8773C83.233 69.0834 83.4309 69.3633 83.6008 69.4644C83.7614 69.5597 83.9461 69.4638 84.0788 69.4554C84.0742 69.2007 84.0773 69.0672 84.0672 68.9272Z" fill="#BA68C8"/>
<path d="M77.0343 63.6078C78.0687 64.6038 78.6096 65.6665 78.7167 66.8232C78.733 66.9968 78.906 67.2321 78.9603 67.3448C79.4321 67.6714 79.6649 67.5613 79.6657 67.1543C79.6673 65.9361 78.6561 64.0154 77.482 62.9974C77.1903 62.744 76.9443 62.6676 76.8046 62.8801C76.6765 63.0771 76.7743 63.3577 77.0343 63.6078Z" fill="#BA68C8"/>
<g opacity="0.9">
<path d="M84.1595 77.7375C82.973 76.1084 81.7764 74.4852 80.5884 72.8567C80.0429 72.1089 79.429 71.6754 78.7198 71.5484C78.144 71.4454 77.5674 71.3404 76.9808 71.1933C76.8256 71.1544 76.578 70.9873 76.4709 70.8317C74.4921 67.9695 72.9471 65.0296 71.8724 62.017C71.8227 61.877 71.8576 61.6898 71.9368 61.6237C72.3007 61.3185 72.6879 61.0392 73.0798 60.7683C73.5633 60.4346 73.6471 59.865 73.3778 59.0517C72.8043 57.3209 72.2503 55.5927 71.6815 53.8626C71.3097 52.7305 70.4701 51.9127 69.459 51.708C68.0513 51.4228 66.7826 51.4598 65.6558 51.8233C65.1809 51.9769 64.9365 52.3339 64.931 52.9463C65.1274 54.1334 65.2632 55.305 65.5293 56.5096C67.4484 65.2006 72.0648 73.206 79.3499 80.5142C79.9233 81.0896 80.4976 81.3617 81.078 81.3404C82.3577 81.2937 83.4541 80.9483 84.3559 80.2861C85.0473 79.78 84.9767 78.8592 84.1595 77.7375Z" fill="white"/>
<path d="M84.0672 68.9272C83.9415 67.1951 83.3277 65.4112 82.2327 63.5858C81.4412 62.2651 80.4689 61.0761 79.3258 60.0172C79.0185 59.7321 78.7601 59.6401 78.6119 59.8585C78.4606 60.0814 78.6073 60.3756 78.906 60.6549C79.0077 60.7501 79.1085 60.846 79.2063 60.9458C81.4559 63.2248 82.7472 65.6717 83.0731 68.2864C83.098 68.4859 83.0553 68.6836 83.1414 68.8773C83.233 69.0834 83.4309 69.3633 83.6008 69.4644C83.7614 69.5597 83.9461 69.4638 84.0788 69.4554C84.0742 69.2007 84.0773 69.0672 84.0672 68.9272Z" fill="white"/>
<path d="M77.0343 63.6078C78.0687 64.6038 78.6096 65.6665 78.7167 66.8232C78.733 66.9968 78.906 67.2321 78.9603 67.3448C79.4321 67.6714 79.6649 67.5613 79.6657 67.1543C79.6673 65.9361 78.6561 64.0154 77.482 62.9974C77.1903 62.744 76.9443 62.6676 76.8046 62.8801C76.6765 63.0771 76.7743 63.3577 77.0343 63.6078Z" fill="white"/>
</g>
<path d="M255.456 34.6551L262.729 38.1102V35.9608C262.717 35.8079 262.705 35.6543 262.705 35.504C262.705 35.3536 262.717 35.2117 262.729 35.0698V35.0193L262.731 35.0206C262.993 32.1719 265.576 31.0801 268.729 32.6003C270.072 33.2476 271.308 34.2728 272.31 35.4722C273.021 31.603 276.801 30.2066 281.37 32.4098C286.446 34.8566 290.56 40.8078 290.56 45.7015L290.565 50.3062C290.565 51.0475 291.036 51.7338 291.802 52.109L296.08 54.2046C297.968 55.1293 299.128 56.8199 299.128 58.6479C299.128 60.2809 297.01 61.3015 295.317 60.4844L255.566 41.31C253.418 40.2739 252.094 38.3597 252.094 36.2874C252.094 34.8469 253.957 33.9423 255.456 34.6551Z" fill="#E6E6E6"/>
<path d="M310.886 33.757L316.174 36.2699V34.7069C316.166 34.5955 316.157 34.484 316.157 34.3751C316.157 34.2656 316.166 34.1626 316.174 34.0596V34.0226L316.177 34.0233C316.367 31.9516 318.245 31.1578 320.538 32.2633C321.515 32.7344 322.413 33.4796 323.142 34.3518C323.659 31.5382 326.407 30.5228 329.73 32.1246C333.422 33.9041 336.413 38.232 336.413 41.7909L336.416 45.1391C336.417 45.6782 336.759 46.1772 337.316 46.45L340.427 47.9741C341.8 48.6467 342.644 49.876 342.644 51.205C342.644 52.3928 341.104 53.1347 339.873 52.5405L310.966 38.5962C309.404 37.8426 308.441 36.4507 308.441 34.9441C308.441 33.8969 309.796 33.2392 310.886 33.757Z" fill="#E6E6E6"/>
</svg>
