<svg xmlns="http://www.w3.org/2000/svg" width="71" height="55" fill="none" viewBox="0 0 71 55"><path fill="#009217" d="M35.0895 54.6796C34.8566 54.6796 34.6236 54.5964 34.4128 54.4578L32.2828 52.8769C31.9611 52.655 32.1164 52.5718 32.2273 52.5302C32.6489 52.3499 32.7377 52.3083 33.1925 51.9755C33.2369 51.9478 33.3034 51.9617 33.3478 51.9894L34.9897 53.2097C35.0452 53.2513 35.1339 53.2513 35.1894 53.2097L41.6016 48.5781C41.657 48.5365 41.7014 48.4533 41.7014 48.3562V39.1068C41.7014 39.0097 41.6681 38.9265 41.6016 38.8849L35.1894 34.2671C35.1339 34.2255 35.0562 34.2255 34.9897 34.2671L28.5775 38.8849C28.5109 38.9265 28.4777 39.0236 28.4777 39.1068V48.3562C28.4777 48.4394 28.522 48.5226 28.5775 48.5642L30.3303 49.8261C31.2844 50.4224 31.8723 49.7152 31.8723 49.0218V39.8833C31.8723 39.7585 31.95 39.6476 32.0609 39.6476H32.8708C32.9706 39.6476 33.0594 39.7447 33.0594 39.8833V49.0218C33.0594 50.6165 32.3716 51.5179 31.1623 51.5179C30.7962 51.5179 30.4967 51.5179 29.6869 51.0187L28.0006 49.8122C27.5902 49.5072 27.3239 48.9525 27.3239 48.3562V39.1068C27.3239 38.5105 27.5791 37.9419 28.0006 37.6507L34.4128 33.0191C34.8233 32.7279 35.3558 32.7279 35.7552 33.0191L42.1673 37.6507C42.5778 37.9558 42.8441 38.5105 42.8441 39.1068V48.3562C42.8441 48.9525 42.5889 49.521 42.1673 49.8122L35.7552 54.4439C35.5666 54.5964 35.3336 54.6796 35.0895 54.6796ZM40.2703 45.555C40.2703 43.8216 39.3384 43.364 37.3637 43.0312C35.3669 42.6984 35.1672 42.532 35.1672 41.9496C35.1672 41.4642 35.3336 40.8263 36.8091 40.8263C38.1292 40.8263 38.6173 41.1869 38.817 42.2962C38.8392 42.4072 38.9058 42.4765 38.9945 42.4765H39.8266C39.882 42.4765 39.9264 42.4488 39.9597 42.4072C39.993 42.3517 40.0152 42.2962 40.0041 42.2269C39.8709 40.3132 38.8614 39.4257 36.8091 39.4257C34.9786 39.4257 33.8914 40.3964 33.8914 42.005C33.8914 43.7662 34.9786 44.2376 36.7314 44.4595C38.8281 44.723 38.9945 45.0974 38.9945 45.6105C38.9945 46.5119 38.4177 46.8863 37.0642 46.8863C35.3669 46.8863 34.9897 46.3593 34.8677 45.3054C34.8566 45.1945 34.7789 45.1113 34.6791 45.1113H33.847C33.7472 45.1113 33.6584 45.2083 33.6584 45.347C33.6584 46.6921 34.2464 48.3007 37.0531 48.3007C39.1055 48.3007 40.2703 47.3023 40.2703 45.555ZM46.3164 38.6076C46.3164 39.4535 45.7617 40.1468 45.085 40.1468C44.4083 40.1468 43.8536 39.4535 43.8536 38.6076C43.8536 37.7339 44.4305 37.0683 45.085 37.0683C45.7506 37.0544 46.3164 37.7339 46.3164 38.6076ZM46.1167 38.6076C46.1167 37.8865 45.6508 37.3179 45.0739 37.3179C44.5081 37.3179 44.0422 37.8865 44.0422 38.6076C44.0422 39.3287 44.5081 39.9111 45.0739 39.9111C45.6508 39.8972 46.1167 39.3148 46.1167 38.6076ZM45.6175 39.4673H45.3291C45.318 39.3841 45.2736 38.9404 45.2736 38.9265C45.2514 38.8294 45.2292 38.774 45.1294 38.774H44.8853V39.4673H44.6191V37.7339H45.0961C45.2625 37.7339 45.5842 37.7339 45.5842 38.1915C45.5842 38.5105 45.4178 38.5798 45.318 38.6214C45.5066 38.6353 45.5177 38.7878 45.5509 39.0097C45.562 39.1484 45.5842 39.3841 45.6175 39.4673ZM45.3069 38.247C45.3069 38.0113 45.1738 38.0113 45.1072 38.0113H44.8853V38.4966H45.0961C45.2736 38.4966 45.3069 38.3441 45.3069 38.247ZM15.2317 18.4863C15.2317 18.1119 15.0764 17.779 14.8213 17.5988L8.02078 12.7037C7.90984 12.6204 7.77672 12.5788 7.64359 12.565H7.57703C7.44391 12.565 7.32188 12.6204 7.19984 12.7037L0.410469 17.5988C0.155313 17.779 0 18.1257 0 18.4863L0.0110937 31.6601C0.0110937 31.8404 0.08875 32.0068 0.210781 32.1038C0.332812 32.2009 0.488125 32.2009 0.62125 32.1038L4.65937 29.2056C4.91453 29.0115 5.06984 28.6786 5.06984 28.3181V22.1611C5.06984 21.8005 5.22516 21.4538 5.48031 21.2736L7.19984 20.0394C7.33297 19.9423 7.46609 19.9007 7.61031 19.9007C7.75453 19.9007 7.89875 19.9423 8.02078 20.0394L9.74031 21.2736C9.99547 21.4538 10.1508 21.8005 10.1508 22.1611V28.3181C10.1508 28.6786 10.3061 29.0253 10.5612 29.2056L14.5994 32.1038C14.7214 32.2009 14.8878 32.2009 15.0098 32.1038C15.1319 32.0206 15.2095 31.8404 15.2095 31.6601L15.2317 18.4863ZM52.418 4.10599V28.5677C52.418 28.9283 52.2627 29.2749 52.0075 29.4552L45.207 34.3642C44.9519 34.5445 44.6413 34.5445 44.3861 34.3642L37.5856 29.4552C37.3305 29.2749 37.1752 28.9283 37.1752 28.5677V18.7497C37.1752 18.3892 37.3305 18.0425 37.5856 17.8622L44.3861 12.9533C44.6413 12.773 44.9519 12.773 45.207 12.9533L46.9044 14.1736C47.093 14.3122 47.337 14.132 47.337 13.8685V0.833338C47.337 0.445056 47.6698 0.195447 47.9472 0.389588L51.9964 3.21849C52.2516 3.3849 52.418 3.73158 52.418 4.10599ZM47.3148 21.9808C47.3148 21.8837 47.2705 21.8005 47.215 21.7589L44.8853 20.0671C44.8187 20.0255 44.7411 20.0255 44.6745 20.0671L42.3448 21.7589C42.2783 21.8005 42.245 21.8837 42.245 21.9808V25.3505C42.245 25.4476 42.2894 25.5308 42.3448 25.5724L44.6745 27.2503C44.7411 27.2919 44.8187 27.2919 44.8742 27.2503L47.2039 25.5724C47.2705 25.5308 47.3037 25.4476 47.3037 25.3505V21.9808H47.3148ZM70.5895 21.8837C70.8447 21.7035 71 21.3568 71 20.9962V18.6249C71 18.2644 70.8447 17.9177 70.5895 17.7374L63.8334 12.8285C63.5783 12.6482 63.2677 12.6482 63.0125 12.8285L56.212 17.7374C55.9569 17.9177 55.8016 18.2644 55.8016 18.6249V28.4429C55.8016 28.8173 55.9569 29.1501 56.212 29.3304L62.9681 34.1423C63.2122 34.3226 63.5228 34.3226 63.778 34.1423L67.8605 31.2995C68.1378 31.1054 68.1378 30.6062 67.8605 30.412L61.0156 25.5031C60.8825 25.406 60.8048 25.2396 60.8048 25.0593V21.9808C60.8048 21.8005 60.8825 21.6341 61.0156 21.537L63.1456 19.9978C63.2677 19.9007 63.4341 19.9007 63.5561 19.9978L65.6861 21.537C65.8081 21.6341 65.8969 21.8005 65.8969 21.9808V24.3937C65.8969 24.782 66.2408 25.0316 66.5181 24.8374L70.5895 21.8837ZM62.0141 22.3691C61.9697 22.4107 61.9364 22.4661 61.9364 22.5355V24.4214C61.9364 24.4908 61.9697 24.5601 62.0141 24.5878L63.3231 25.5308C63.3675 25.5724 63.4341 25.5724 63.4784 25.5308L64.7875 24.5878C64.8319 24.5462 64.8652 24.4908 64.8652 24.4214V22.5355C64.8652 22.4661 64.8319 22.3968 64.7875 22.3691L63.4784 21.4261C63.4341 21.3845 63.3675 21.3845 63.3231 21.4261L62.0141 22.3691ZM33.8137 28.4013V18.6388C33.8137 18.2783 33.6362 17.9316 33.3811 17.7513L26.6028 12.8701C26.3698 12.7036 26.0481 12.6759 25.7819 12.8701L19.0036 17.7513C18.7484 17.9316 18.5709 18.2644 18.5709 18.6388V28.4013C18.5709 28.7896 18.7817 29.1224 19.0147 29.2888L25.8041 34.1701C26.0703 34.3642 26.3809 34.3503 26.625 34.1701L33.3922 29.2888C33.5919 29.1501 33.7361 28.9144 33.7916 28.6371C33.8027 28.5677 33.8137 28.4845 33.8137 28.4013ZM25.5711 11.0812L25.4823 11.1505H25.6044L25.5711 11.0812ZM34.0245 29.1363L33.9802 29.0392V29.164L34.0245 29.1363Z"/></svg>