<svg width="71" height="71" viewBox="0 0 71 71" fill="none" xmlns="http://www.w3.org/2000/svg">
<path d="M63.3929 4.4375H7.60714C3.40737 4.4375 0 7.41895 0 11.0938V59.9062C0 63.5811 3.40737 66.5625 7.60714 66.5625H63.3929C67.5926 66.5625 71 63.5811 71 59.9062V11.0938C71 7.41895 67.5926 4.4375 63.3929 4.4375ZM38.6379 52.8895C38.6379 58.9355 34.5808 61.6951 28.6694 61.6951C23.3286 61.6951 20.2382 59.2822 18.6533 56.3563L24.0893 53.4857C25.1353 55.1082 26.0862 56.4811 28.3842 56.4811C30.5712 56.4811 31.9658 55.7322 31.9658 52.8062V32.9623H38.6379V52.8895ZM54.4228 61.6951C48.2261 61.6951 44.2165 59.1158 42.2672 55.7322L47.7031 52.9865C49.1295 55.025 50.9996 56.5365 54.2801 56.5365C57.0377 56.5365 58.8127 55.3301 58.8127 53.6521C58.8127 51.6553 57.006 50.948 53.9473 49.7693L52.2833 49.1453C47.4654 47.3564 44.2799 45.0961 44.2799 40.3396C44.2799 35.9576 48.0993 32.6295 54.0424 32.6295C58.2897 32.6295 61.3326 33.9191 63.5196 37.3027L58.3214 40.2148C57.1804 38.426 55.9442 37.7188 54.0266 37.7188C52.0772 37.7188 50.8411 38.8004 50.8411 40.2148C50.8411 41.9621 52.0772 42.6693 54.9458 43.7648L56.6098 44.3889C62.2835 46.5105 65.469 48.6877 65.469 53.5689C65.469 58.8107 60.7462 61.6951 54.4228 61.6951Z" fill="#FFD439"/>
</svg>
